{
  "source": "C:\\Users\\Peter\\Desktop\\stuff\\MIUN\\quantitative_research\\video_compression\\videos\\BVI-HD\\BVI-HD_CDVL_videos\\ORIG\\BricksLeaves_1920x1080_60fps.mp4",
  "output": "C:\\Users\\Peter\\Desktop\\stuff\\MIUN\\quantitative_research\\video_compression\\compressed_videos\\BVI-HD\\vp9\\8\\BricksLeaves_1920x1080_60fps_vp9.webm",
  "codec": "vp9",
  "ok": "Input #0, mov,mp4,m4a,3gp,3g2,mj2, from 'C:\\Users\\Peter\\Desktop\\stuff\\MIUN\\quantitative_research\\video_compression\\videos\\BVI-HD\\BVI-HD_CDVL_videos\\ORIG\\BricksLeaves_1920x1080_60fps.mp4':\n  Metadata:\n    major_brand     : isom\n    minor_version   : 512\n    compatible_brands: isomiso2avc1mp41\n    encoder         : Lavf54.28.101\n  Duration: 00:00:05.00, start: 0.000000, bitrate: 524627 kb/s\n  Stream #0:0[0x1](und): Video: h264 (High 4:4:4 Predictive) (avc1 / 0x31637661), yuv420p(progressive), 1920x1080, 524622 kb/s, 60 fps, 60 tbr, 60 tbn (default)\n    Metadata:\n      handler_name    : VideoHandler\n      vendor_id       : [0][0][0][0]\n[out#0/webm @ 00000201dfd09040] Codec AVOption b:a (set bitrate (in bits/s)) has not been used for any stream. The most likely reason is either wrong type (e.g. a video option with no video streams) or that it is a private option of some decoder which was not actually used for any stream.\nStream mapping:\n  Stream #0:0 -> #0:0 (h264 (native) -> vp9 (libvpx-vp9))\nPress [q] to stop, [?] for help\n[libvpx-vp9 @ 00000201e0940640] v1.15.2-100-g40561f514\nOutput #0, webm, to 'C:\\Users\\Peter\\Desktop\\stuff\\MIUN\\quantitative_research\\video_compression\\compressed_videos\\BVI-HD\\vp9\\8\\BricksLeaves_1920x1080_60fps_vp9.webm':\n  Metadata:\n    major_brand     : isom\n    minor_version   : 512\n    compatible_brands: isomiso2avc1mp41\n    encoder         : Lavf62.3.100\n  Stream #0:0(und): Video: vp9, yuv420p(tv, progressive), 1920x1080, q=2-31, 8000 kb/s, 60 fps, 1k tbn (default)\n    Metadata:\n      encoder         : Lavc62.11.100 libvpx-vp9\n      handler_name    : VideoHandler\n      vendor_id       : [0][0][0][0]\n    Side data:\n      cpb: bitrate max/min/avg: 0/0/0 buffer size: 8000000 vbv_delay: N/A\nframe=    0 fps=0.0 q=0.0 size=       0KiB time=N/A bitrate=N/A speed=N/A elapsed=0:00:00.50    \nframe=    1 fps=0.9 q=12.0 size=       1KiB time=00:00:00.01 bitrate= 303.8kbits/s speed=0.0158x elapsed=0:00:01.05    \nframe=    8 fps=5.1 q=38.0 size=       1KiB time=00:00:00.13 bitrate=  38.0kbits/s speed=0.085x elapsed=0:00:01.56    \nframe=   13 fps=6.2 q=27.0 size=       1KiB time=00:00:00.21 bitrate=  23.4kbits/s speed=0.104x elapsed=0:00:02.08    \nframe=   19 fps=7.3 q=36.0 size=       1KiB time=00:00:00.31 bitrate=  16.0kbits/s speed=0.121x elapsed=0:00:02.60    \nframe=   24 fps=7.7 q=37.0 size=       1KiB time=00:00:00.40 bitrate=  12.7kbits/s speed=0.128x elapsed=0:00:03.12    \nframe=   29 fps=8.0 q=39.0 size=       1KiB time=00:00:00.48 bitrate=  10.5kbits/s speed=0.133x elapsed=0:00:03.64    \nframe=   35 fps=8.4 q=41.0 size=       1KiB time=00:00:00.58 bitrate=   8.7kbits/s speed=0.14x elapsed=0:00:04.16    \nframe=   39 fps=8.3 q=39.0 size=       1KiB time=00:00:00.65 bitrate=   7.8kbits/s speed=0.139x elapsed=0:00:04.67    \nframe=   45 fps=8.7 q=40.0 size=       1KiB time=00:00:00.75 bitrate=   6.8kbits/s speed=0.144x elapsed=0:00:05.19    \nframe=   49 fps=8.6 q=27.0 size=       1KiB time=00:00:00.81 bitrate=   6.2kbits/s speed=0.143x elapsed=0:00:05.72    \nframe=   54 fps=8.7 q=40.0 size=       1KiB time=00:00:00.90 bitrate=   5.6kbits/s speed=0.144x elapsed=0:00:06.24    \nframe=   59 fps=8.7 q=41.0 size=       1KiB time=00:00:00.98 bitrate=   5.1kbits/s speed=0.145x elapsed=0:00:06.77    \nframe=   64 fps=8.8 q=41.0 size=       1KiB time=00:00:01.05 bitrate=   4.8kbits/s speed=0.144x elapsed=0:00:07.29    \nframe=   69 fps=8.8 q=41.0 size=       1KiB time=00:00:01.15 bitrate=   4.4kbits/s speed=0.146x elapsed=0:00:07.85    \nframe=   73 fps=8.7 q=27.0 size=       1KiB time=00:00:01.20 bitrate=   4.2kbits/s speed=0.143x elapsed=0:00:08.37    \nframe=   77 fps=8.6 q=41.0 size=       1KiB time=00:00:01.28 bitrate=   3.9kbits/s speed=0.144x elapsed=0:00:08.93    \nframe=   81 fps=8.6 q=41.0 size=       1KiB time=00:00:01.33 bitrate=   3.8kbits/s speed=0.141x elapsed=0:00:09.46    \nframe=   84 fps=8.4 q=41.0 size=       1KiB time=00:00:01.38 bitrate=   3.7kbits/s speed=0.138x elapsed=0:00:10.05    \nframe=   85 fps=8.0 q=27.0 size=       1KiB time=00:00:01.41 bitrate=   3.6kbits/s speed=0.133x elapsed=0:00:10.66    \nframe=   88 fps=7.8 q=41.0 size=       1KiB time=00:00:01.46 bitrate=   3.5kbits/s speed=0.13x elapsed=0:00:11.26    \nframe=   91 fps=7.7 q=41.0 size=       1KiB time=00:00:01.51 bitrate=   3.3kbits/s speed=0.129x elapsed=0:00:11.77    \nframe=   94 fps=7.6 q=42.0 size=       1KiB time=00:00:01.56 bitrate=   3.2kbits/s speed=0.127x elapsed=0:00:12.28    \nframe=   96 fps=7.5 q=42.0 size=       1KiB time=00:00:01.60 bitrate=   3.2kbits/s speed=0.125x elapsed=0:00:12.81    \nframe=  100 fps=7.5 q=42.0 size=       1KiB time=00:00:01.66 bitrate=   3.0kbits/s speed=0.125x elapsed=0:00:13.32    \nframe=  104 fps=7.5 q=42.0 size=       1KiB time=00:00:01.73 bitrate=   2.9kbits/s speed=0.125x elapsed=0:00:13.90    \nframe=  108 fps=7.5 q=42.0 size=       1KiB time=00:00:01.80 bitrate=   2.8kbits/s speed=0.124x elapsed=0:00:14.46    \nframe=  112 fps=7.5 q=42.0 size=       1KiB time=00:00:01.86 bitrate=   2.7kbits/s speed=0.124x elapsed=0:00:15.00    \nframe=  116 fps=7.5 q=42.0 size=       1KiB time=00:00:01.93 bitrate=   2.6kbits/s speed=0.124x elapsed=0:00:15.53    \nframe=  119 fps=7.4 q=28.0 size=       1KiB time=00:00:01.96 bitrate=   2.6kbits/s speed=0.122x elapsed=0:00:16.07    \nframe=  122 fps=7.3 q=43.0 size=       1KiB time=00:00:02.03 bitrate=   2.5kbits/s speed=0.122x elapsed=0:00:16.63    \nframe=  126 fps=7.3 q=43.0 size=       1KiB time=00:00:02.10 bitrate=   2.4kbits/s speed=0.122x elapsed=0:00:17.15    \nframe=  129 fps=7.3 q=28.0 size=       1KiB time=00:00:02.15 bitrate=   2.4kbits/s speed=0.122x elapsed=0:00:17.68    \nframe=  133 fps=7.3 q=44.0 size=    2048KiB time=00:00:02.21 bitrate=7568.7kbits/s speed=0.122x elapsed=0:00:18.23    \nframe=  137 fps=7.3 q=44.0 size=    2048KiB time=00:00:02.28 bitrate=7347.7kbits/s speed=0.122x elapsed=0:00:18.73    \nframe=  140 fps=7.3 q=25.0 size=    2048KiB time=00:00:02.33 bitrate=7190.2kbits/s speed=0.121x elapsed=0:00:19.26    \nframe=  143 fps=7.2 q=44.0 size=    2048KiB time=00:00:02.38 bitrate=7039.4kbits/s speed=0.12x elapsed=0:00:19.79    \nframe=  148 fps=7.3 q=44.0 size=    2048KiB time=00:00:02.46 bitrate=6801.6kbits/s speed=0.121x elapsed=0:00:20.35    \nframe=  151 fps=7.2 q=44.0 size=    2048KiB time=00:00:02.51 bitrate=6666.4kbits/s speed=0.12x elapsed=0:00:20.91    \nframe=  153 fps=7.1 q=43.0 size=    2048KiB time=00:00:02.55 bitrate=6579.3kbits/s speed=0.119x elapsed=0:00:21.44    \nframe=  157 fps=7.1 q=43.0 size=    2048KiB time=00:00:02.61 bitrate=6411.7kbits/s speed=0.119x elapsed=0:00:22.00    \nframe=  161 fps=7.1 q=44.0 size=    2048KiB time=00:00:02.68 bitrate=6252.4kbits/s speed=0.119x elapsed=0:00:22.53    \nframe=  163 fps=7.1 q=44.0 size=    2048KiB time=00:00:02.71 bitrate=6175.7kbits/s speed=0.118x elapsed=0:00:23.05    \nframe=  166 fps=7.0 q=44.0 size=    2048KiB time=00:00:02.76 bitrate=6064.1kbits/s speed=0.117x elapsed=0:00:23.60    \nframe=  170 fps=7.0 q=44.0 size=    2048KiB time=00:00:02.83 bitrate=5921.4kbits/s speed=0.117x elapsed=0:00:24.17    \nframe=  173 fps=7.0 q=44.0 size=    2048KiB time=00:00:02.88 bitrate=5818.7kbits/s speed=0.117x elapsed=0:00:24.69    \nframe=  176 fps=7.0 q=27.0 size=    2048KiB time=00:00:02.93 bitrate=5719.5kbits/s speed=0.116x elapsed=0:00:25.21    \nframe=  179 fps=6.9 q=44.0 size=    2048KiB time=00:00:02.98 bitrate=5623.6kbits/s speed=0.116x elapsed=0:00:25.75    \nframe=  182 fps=6.9 q=44.0 size=    2048KiB time=00:00:03.03 bitrate=5531.0kbits/s speed=0.115x elapsed=0:00:26.32    \nframe=  186 fps=6.9 q=43.0 size=    2048KiB time=00:00:03.10 bitrate=5412.0kbits/s speed=0.115x elapsed=0:00:26.90    \nframe=  189 fps=6.9 q=42.0 size=    2048KiB time=00:00:03.15 bitrate=5326.1kbits/s speed=0.115x elapsed=0:00:27.43    \nframe=  194 fps=6.9 q=42.0 size=    2048KiB time=00:00:03.23 bitrate=5188.8kbits/s speed=0.116x elapsed=0:00:27.95    \nframe=  197 fps=6.9 q=42.0 size=    2048KiB time=00:00:03.28 bitrate=5109.8kbits/s speed=0.115x elapsed=0:00:28.48    \nframe=  199 fps=6.8 q=43.0 size=    2048KiB time=00:00:03.31 bitrate=5058.5kbits/s speed=0.114x elapsed=0:00:29.06    \nframe=  202 fps=6.8 q=42.0 size=    2048KiB time=00:00:03.36 bitrate=4983.3kbits/s speed=0.114x elapsed=0:00:29.64    \nframe=  206 fps=6.8 q=43.0 size=    2048KiB time=00:00:03.43 bitrate=4886.6kbits/s speed=0.114x elapsed=0:00:30.15    \nframe=  210 fps=6.8 q=43.0 size=    2048KiB time=00:00:03.50 bitrate=4793.5kbits/s speed=0.114x elapsed=0:00:30.66    \nframe=  213 fps=6.8 q=42.0 size=    2048KiB time=00:00:03.55 bitrate=4726.0kbits/s speed=0.114x elapsed=0:00:31.18    \nframe=  216 fps=6.8 q=41.0 size=    2048KiB time=00:00:03.60 bitrate=4660.3kbits/s speed=0.113x elapsed=0:00:31.75    \nframe=  220 fps=6.8 q=42.0 size=    2048KiB time=00:00:03.65 bitrate=4596.5kbits/s speed=0.113x elapsed=0:00:32.31    \nframe=  223 fps=6.8 q=42.0 size=    2048KiB time=00:00:03.71 bitrate=4514.0kbits/s speed=0.113x elapsed=0:00:32.85    \nframe=  226 fps=6.8 q=43.0 size=    2048KiB time=00:00:03.76 bitrate=4454.1kbits/s speed=0.113x elapsed=0:00:33.36    \nframe=  230 fps=6.8 q=44.0 size=    2048KiB time=00:00:03.83 bitrate=4376.7kbits/s speed=0.113x elapsed=0:00:33.89    \nframe=  233 fps=6.8 q=44.0 size=    2048KiB time=00:00:03.88 bitrate=4320.3kbits/s speed=0.113x elapsed=0:00:34.44    \nframe=  235 fps=6.7 q=45.0 size=    2048KiB time=00:00:03.91 bitrate=4283.5kbits/s speed=0.112x elapsed=0:00:34.99    \nframe=  238 fps=6.7 q=47.0 size=    2048KiB time=00:00:03.96 bitrate=4229.5kbits/s speed=0.112x elapsed=0:00:35.52    \nframe=  242 fps=6.7 q=50.0 size=    2048KiB time=00:00:04.03 bitrate=4159.6kbits/s speed=0.112x elapsed=0:00:36.05    \nframe=  245 fps=6.7 q=51.0 size=    2048KiB time=00:00:04.08 bitrate=4108.7kbits/s speed=0.111x elapsed=0:00:36.62    \nframe=  247 fps=6.6 q=51.0 size=    2048KiB time=00:00:04.11 bitrate=4075.4kbits/s speed=0.111x elapsed=0:00:37.16    \nframe=  250 fps=6.6 q=53.0 size=    2048KiB time=00:00:04.16 bitrate=4026.5kbits/s speed=0.11x elapsed=0:00:37.73    \nframe=  253 fps=6.6 q=54.0 size=    2048KiB time=00:00:04.21 bitrate=3978.8kbits/s speed=0.11x elapsed=0:00:38.32    \nframe=  256 fps=6.6 q=55.0 size=    2048KiB time=00:00:04.26 bitrate=3932.2kbits/s speed=0.11x elapsed=0:00:38.88    \nframe=  256 fps=6.5 q=55.0 size=    2048KiB time=00:00:04.26 bitrate=3932.2kbits/s speed=0.108x elapsed=0:00:39.43    \nframe=  259 fps=6.5 q=56.0 size=    4352KiB time=00:00:04.31 bitrate=8259.1kbits/s speed=0.108x elapsed=0:00:39.95    \nframe=  261 fps=6.4 q=57.0 size=    4352KiB time=00:00:04.35 bitrate=8195.8kbits/s speed=0.107x elapsed=0:00:40.51    \nframe=  264 fps=6.4 q=58.0 size=    4352KiB time=00:00:04.40 bitrate=8102.6kbits/s speed=0.107x elapsed=0:00:41.02    \nframe=  267 fps=6.4 q=58.0 size=    4352KiB time=00:00:04.45 bitrate=8011.6kbits/s speed=0.107x elapsed=0:00:41.53    \nframe=  268 fps=6.4 q=58.0 size=    4352KiB time=00:00:04.46 bitrate=7981.7kbits/s speed=0.106x elapsed=0:00:42.08    \nframe=  271 fps=6.4 q=59.0 size=    4352KiB time=00:00:04.51 bitrate=7893.3kbits/s speed=0.106x elapsed=0:00:42.61    \nframe=  273 fps=6.3 q=59.0 size=    4352KiB time=00:00:04.55 bitrate=7835.5kbits/s speed=0.105x elapsed=0:00:43.17    \nframe=  276 fps=6.3 q=59.0 size=    4352KiB time=00:00:04.60 bitrate=7750.3kbits/s speed=0.105x elapsed=0:00:43.70    \nframe=  276 fps=6.2 q=59.0 size=    4352KiB time=00:00:04.60 bitrate=7750.3kbits/s speed=0.104x elapsed=0:00:44.23    \nframe=  276 fps=6.2 q=59.0 size=    4352KiB time=00:00:04.60 bitrate=7750.3kbits/s speed=0.103x elapsed=0:00:44.78    \nframe=  276 fps=6.1 q=59.0 size=    4352KiB time=00:00:04.60 bitrate=7750.3kbits/s speed=0.101x elapsed=0:00:45.34    \nframe=  276 fps=6.0 q=59.0 size=    4352KiB time=00:00:04.60 bitrate=7750.3kbits/s speed= 0.1x elapsed=0:00:45.92    \nframe=  276 fps=5.9 q=59.0 size=    4352KiB time=00:00:04.60 bitrate=7750.3kbits/s speed=0.099x elapsed=0:00:46.46    \nframe=  276 fps=5.9 q=59.0 size=    4352KiB time=00:00:04.60 bitrate=7750.3kbits/s speed=0.0979x elapsed=0:00:46.99    \nframe=  276 fps=5.8 q=59.0 size=    4352KiB time=00:00:04.60 bitrate=7750.3kbits/s speed=0.0967x elapsed=0:00:47.56    \nframe=  276 fps=5.7 q=59.0 size=    4352KiB time=00:00:04.60 bitrate=7750.3kbits/s speed=0.0957x elapsed=0:00:48.08    \nframe=  276 fps=5.7 q=59.0 size=    4352KiB time=00:00:04.60 bitrate=7750.3kbits/s speed=0.0946x elapsed=0:00:48.60    \nframe=  276 fps=5.6 q=59.0 size=    4352KiB time=00:00:04.60 bitrate=7750.3kbits/s speed=0.0936x elapsed=0:00:49.13    \nframe=  276 fps=5.6 q=59.0 size=    4352KiB time=00:00:04.60 bitrate=7750.3kbits/s speed=0.0926x elapsed=0:00:49.65    \nframe=  276 fps=5.5 q=59.0 size=    4352KiB time=00:00:04.60 bitrate=7750.3kbits/s speed=0.0916x elapsed=0:00:50.19    \nframe=  276 fps=5.4 q=59.0 size=    4352KiB time=00:00:04.60 bitrate=7750.3kbits/s speed=0.0907x elapsed=0:00:50.72    \n[out#0/webm @ 00000201dfd09040] video:5288KiB audio:0KiB subtitle:0KiB other streams:0KiB global headers:0KiB muxing overhead: 0.052703%\nframe=  300 fps=5.9 q=59.0 Lsize=    5291KiB time=00:00:05.00 bitrate=8668.9kbits/s speed=0.0978x elapsed=0:00:51.14    \n",
  "seconds": 51.60124325752258,
  "probe_out": {}
}